<?xml version="1.0" encoding="UTF-8"?>
<svg width="97px" height="50px" viewBox="0 0 97 50" version="1.1" xmlns="http://www.w3.org/2000/svg" xmlns:xlink="http://www.w3.org/1999/xlink">
    <g id="Hilton-Honors-97x50-Copy" stroke="none" stroke-width="1" fill="none" fill-rule="evenodd">
        <g id="Logos-/-Black-/-HHonors" transform="translate(1.000000, 4.000000)" fill="#231F20">
            <g id="Group-32" transform="translate(0.000000, 0.000000)">
                <polygon id="Fill-1" points="0 -3.6259542e-05 0 37.5992958 16.9455344 37.5992958 16.9455344 35.983208 1.61572519 35.983208 1.61572519 1.61641412 93.238874 1.61641412 93.238874 35.983208 77.772729 35.983208 77.772729 37.5992958 94.8553244 37.5992958 94.8553244 -3.6259542e-05"></polygon>
                <polygon id="Fill-2" points="25.549416 40.4341031 25.549416 37.3600191 21.6293969 37.3600191 21.6293969 40.4341031 20.2664008 40.4341031 20.2664008 33.1151145 21.6293969 33.1151145 21.6293969 36.1366221 25.549416 36.1366221 25.549416 33.1151145 26.9127748 33.1151145 26.9127748 40.4341031"></polygon>
                <g id="Group-31" transform="translate(7.977099, 7.834599)">
                    <path d="M23.0978359,28.9409523 C23.0978359,30.3141011 24.1620534,31.4269065 25.5671107,31.4269065 C26.9721679,31.4269065 28.0360229,30.3141011 28.0360229,28.9409523 C28.0360229,27.5678034 26.9721679,26.4546355 25.5671107,26.4546355 C24.1620534,26.4546355 23.0978359,27.5678034 23.0978359,28.9409523 M29.4523206,28.9409523 C29.4523206,31.0197118 27.7129504,32.7046927 25.5671107,32.7046927 C23.421271,32.7046927 21.6819008,31.0197118 21.6819008,28.9409523 C21.6819008,26.8618302 23.421271,25.1764866 25.5671107,25.1764866 C27.7129504,25.1764866 29.4523206,26.8618302 29.4523206,28.9409523" id="Fill-3"></path>
                    <polygon id="Fill-5" points="37.3346374 32.5995038 33.4617557 27.4850954 33.4617557 32.5995038 32.1226908 32.5995038 32.1226908 25.2805153 33.5553053 25.2805153 37.4296374 30.398187 37.4296374 25.2805153 38.7690649 25.2805153 38.7690649 32.5995038"></polygon>
                    <path d="M42.8489885,28.9409523 C42.8489885,30.3141011 43.9135687,31.4269065 45.318626,31.4269065 C46.7236832,31.4269065 47.7871756,30.3141011 47.7871756,28.9409523 C47.7871756,27.5678034 46.7236832,26.4546355 45.318626,26.4546355 C43.9135687,26.4546355 42.8489885,27.5678034 42.8489885,28.9409523 M49.2034733,28.9409523 C49.2034733,31.0197118 47.4644656,32.7046927 45.318626,32.7046927 C43.1727863,32.7046927 41.433416,31.0197118 41.433416,28.9409523 C41.433416,26.8618302 43.1727863,25.1764866 45.318626,25.1764866 C47.4644656,25.1764866 49.2034733,26.8618302 49.2034733,28.9409523" id="Fill-7"></path>
                    <path d="M53.3122233,29.0365687 L55.2183874,29.0380191 C56.436708,29.0380191 56.8968416,28.667084 56.8968416,27.7750992 C56.8968416,26.8813015 56.436708,26.5103664 55.2183874,26.5103664 L53.3122233,26.5103664 L53.3122233,29.0365687 Z M55.1520324,25.2808053 C57.4106393,25.2808053 58.3116889,26.001645 58.3116889,27.6877137 C58.3116889,28.900958 57.8374141,29.6065687 56.7108302,29.900271 L58.5441126,32.5997939 L56.9755248,32.5997939 L55.2959828,30.0797557 C55.154208,30.0888206 55.011708,30.0935344 54.8318607,30.0946221 L53.3122233,30.0946221 L53.3122233,32.5997939 L51.9488645,32.5997939 L51.9488645,25.2815305 L55.1520324,25.2808053 Z" id="Fill-9"></path>
                    <path d="M66.5989885,25.9690115 L66.023187,27.0209008 C65.232729,26.5850611 64.2450191,26.3283435 63.4534733,26.3290687 C62.7808588,26.3305191 62.2039695,26.5963015 62.2039695,27.2293931 C62.2039695,27.6358626 62.4432824,27.8222366 63.7852481,28.1674275 C65.580458,28.6460534 66.7802863,28.9705763 66.7802863,30.4789733 C66.7802863,31.9420458 65.5496374,32.704584 63.8302099,32.704584 C62.5625763,32.704584 61.3424427,32.3626565 60.4167366,31.7426183 L61.0316985,30.724813 C61.9120802,31.2567405 63.0042176,31.5363015 63.9795992,31.5377519 C64.7037023,31.5399275 65.3451336,31.2636298 65.3451336,30.6479427 C65.3451336,29.898458 64.8570802,29.8259389 63.4008969,29.4531908 C61.6977863,29.0231527 60.7329198,28.6271985 60.7329198,27.3921985 C60.7329198,25.8562443 62.0165076,25.1785534 63.5981489,25.1771017 C64.6917366,25.1763779 65.7882252,25.4682672 66.5989885,25.9690115" id="Fill-11"></path>
                    <polygon id="Fill-13" points="17.3262233 1.40654389 17.3262233 18.1729561 18.6399065 18.3459141 18.6399065 19.3285477 12.1313187 19.3285477 12.1313187 18.3459141 13.5320248 18.1729561 13.5320248 10.5406851 5.21481107 10.5406851 5.21481107 18.1729561 6.49876145 18.3459141 6.49876145 19.3285477 0.10765458 19.3285477 0.10765458 18.3459141 1.39160496 18.1729561 1.39160496 1.40654389 0.10765458 1.23322328 0.10765458 0.279234733 6.49876145 0.279234733 6.49876145 1.23322328 5.21481107 1.40654389 5.21481107 8.57541794 13.5320248 8.57541794 13.5320248 1.40654389 12.1313187 1.23322328 12.1313187 0.279234733 18.6399065 0.279234733 18.6399065 1.23322328"></polygon>
                    <polygon id="Fill-15" points="26.1993683 18.2886603 27.4245782 18.4612557 27.4245782 19.3282214 21.4421164 19.3282214 21.4421164 18.4612557 22.6687767 18.2886603 22.6687767 6.81142748 21.4421164 6.63919466 21.4421164 5.77150382 26.1993683 5.77150382"></polygon>
                    <polygon id="Fill-17" points="30.0229008 18.4869637 31.2198282 18.3190821 31.2198282 1.28797519 30.0229008 1.12009351 30.0229008 0.279234733 34.7808779 0.279234733 34.7808779 18.3190821 36.0060878 18.4869637 36.0060878 19.3285477 30.0229008 19.3285477"></polygon>
                    <path d="M43.2735515,5.77150382 L46.4839714,5.77150382 L46.4839714,7.04312595 L43.2735515,7.04312595 L43.2735515,15.1079733 C43.2735515,17.1896336 43.7101164,17.8546336 45.6072156,17.8546336 C46.3084752,17.8546336 46.9227118,17.8546336 47.5057653,17.7095954 L47.5057653,18.6345763 C45.7830744,19.2419237 44.3236279,19.5022672 43.0980553,19.5022672 C40.355021,19.5022672 39.7121393,18.2592901 39.7121393,15.887916 L39.7121393,7.04312595 L37.202979,7.04312595 L37.202979,5.77150382 L39.8006126,5.77150382 L39.8006126,2.9389084 L43.2735515,1.89753435 L43.2735515,5.77150382 Z" id="Fill-19"></path>
                    <path d="M58.6559008,12.593374 C58.6559008,8.31474809 57.3719504,6.43577863 55.2979046,6.43577863 C53.2847748,6.43577863 51.9997366,8.22808779 51.9997366,12.593374 C51.9997366,16.900645 53.2847748,18.6925916 55.2979046,18.6925916 C57.4593359,18.6925916 58.6559008,16.9876679 58.6559008,12.593374 M62.5657672,12.6796718 C62.5657672,16.900645 59.7070649,19.7328779 55.2116069,19.7328779 C50.8619122,19.7328779 48.0887824,17.8825534 48.0887824,12.6796718 C48.0887824,8.31474809 50.9496603,5.39512977 55.4443931,5.39512977 C59.8811107,5.39512977 62.5657672,8.02648473 62.5657672,12.6796718" id="Fill-21"></path>
                    <path d="M78.7930363,18.4611107 L78.7930363,19.3284389 L72.8098492,19.3284389 L72.8098492,18.4611107 L74.0078645,18.2881527 L74.0078645,10.5692214 C74.0078645,8.43027099 73.2199447,7.47664504 71.5839141,7.47664504 C70.8250019,7.47664504 69.6287996,7.99660687 68.7534943,8.6039542 L68.7534943,18.2881527 L69.9787042,18.4611107 L69.9787042,19.3284389 L63.9679599,19.3284389 L63.9679599,18.4611107 L65.1917195,18.2881527 L65.1917195,6.89830534 L63.9679599,6.72534733 L63.9679599,5.77135878 L68.7534943,5.77135878 L68.7534943,7.65069084 C70.2412233,6.46536641 71.6720248,5.51029008 73.6851546,5.51029008 C76.3705363,5.51029008 77.5671011,7.07235115 77.5671011,10.1362824 L77.5671011,18.2881527 L78.7930363,18.4611107 Z" id="Fill-23"></path>
                    <path d="M26.3723263,2.18695802 C26.3723263,3.2410229 25.5100744,4.09493511 24.4462195,4.09493511 C23.3820019,4.09493511 22.51975,3.2410229 22.51975,2.18695802 C22.51975,1.13289313 23.3820019,0.278980916 24.4462195,0.278980916 C25.5100744,0.278980916 26.3723263,1.13289313 26.3723263,2.18695802" id="Fill-25"></path>
                    <polygon id="Fill-27" points="84.6154485 31.6367042 84.100563 31.6367042 84.100563 32.9960744 83.7981584 32.9960744 83.7981584 31.6367042 83.2836355 31.6367042 83.2836355 31.3803492 84.6154485 31.3803492"></polygon>
                    <polygon id="Fill-29" points="86.8781527 32.9960744 86.583 32.9960744 86.583 31.7777538 85.9713015 32.8071622 85.8603473 32.8071622 85.251187 31.7777538 85.251187 32.9960744 84.9531336 32.9960744 84.9531336 31.3803492 85.3501756 31.3803492 85.9158244 32.3241851 86.4811107 31.3803492 86.8781527 31.3803492"></polygon>
                </g>
            </g>
        </g>
    </g>
</svg>