<svg viewBox="0 0 156 47" fill="none" xmlns="http://www.w3.org/2000/svg" id="logo"><path d="M153.718 28.864H2.53906V45.0987H153.718V28.864Z" fill="#DB192F"></path><path d="M11.6889 35.6941V32.6252L9.8419 30.8445H6.49836L4.65137 32.6252V41.6423L6.83935 43.3472H9.70929L11.6889 41.6423V38.0146H8.54426V40.9604H7.8623V33.1651H8.54426V35.6941H11.6889Z" fill="white" stroke="#DB192F" stroke-width="0.106084" stroke-miterlimit="10"></path><path d="M30.0608 30.8648V36.1974H29.9282L28.3558 30.8648H26.1016V43.3676H29.0378V38.3759H29.1041L30.5438 43.3676H33.0065V30.8648H30.0608Z" fill="white" stroke="#DB192F" stroke-width="0.106084" stroke-miterlimit="10"></path><path d="M20.3021 30.8445H17.0911L15.2441 32.6252V41.6423L17.0911 43.3472H20.4347L22.2817 41.6423V32.6252L20.3021 30.8445ZM18.4551 40.9604V33.1746H19.0707V40.9604H18.4551Z" fill="white" stroke="#DB192F" stroke-width="0.106084" stroke-miterlimit="10"></path><path d="M41.7523 35.9227L39.9053 35.7144V33.1854H40.5209V34.9661H43.5993V32.636L41.7523 30.8648H38.5413L36.7606 32.636V36.5384L38.7497 38.2433L40.5209 38.4517V40.9712H39.9053V39.3326H36.6943V41.6626L38.5413 43.3676H41.9512L43.7319 41.6626V37.694L41.7523 35.9227Z" fill="white" stroke="#DB192F" stroke-width="0.106084" stroke-miterlimit="10"></path><path d="M46.668 30.8445V33.1651H48.174V43.3472H51.3849V33.1651H52.8151V30.8445H46.668Z" fill="white" stroke="#DB192F" stroke-width="0.106084" stroke-miterlimit="10"></path><path d="M69.3807 30.8648V40.9712H68.765V30.8648H65.6299V41.6626L67.4011 43.3676H70.7541L72.5916 41.6626V30.8648H69.3807Z" fill="white" stroke="#DB192F" stroke-width="0.106084" stroke-miterlimit="10"></path><path d="M62.7238 32.636L60.8768 30.8648H55.9609V43.3676H59.0298V38.3854H59.7118V43.3676H62.7143V38.3854L61.3504 37.1541L62.7143 35.989V32.636H62.7238ZM59.0393 35.989V33.1854H59.7212V35.989H59.0393Z" fill="white" stroke="#DB192F" stroke-width="0.106084" stroke-miterlimit="10"></path><path d="M83.1746 35.7144V32.636L81.4034 30.8648H77.9841L76.2129 32.636V41.6626L78.3914 43.3676H81.2613L83.1746 41.6626V38.035H80.0395V40.9712H79.4238V33.1854H80.0395V35.7144H83.1746Z" fill="white" stroke="#DB192F" stroke-width="0.106084" stroke-miterlimit="10"></path><path d="M98.6231 30.8648H95.4785V43.3676H98.6231V30.8648Z" fill="white" stroke="#DB192F" stroke-width="0.106084" stroke-miterlimit="10"></path><path d="M86.125 30.8648V33.1854H87.6215V43.3676H90.8325V33.1854H92.3385V30.8648H86.125Z" fill="white" stroke="#DB192F" stroke-width="0.106084" stroke-miterlimit="10"></path><path d="M107.58 30.8648H104.303L102.456 32.636V41.6532L104.303 43.3581H107.713L109.494 41.6532V32.636L107.58 30.8648ZM105.667 40.9712V33.1854H106.349V40.9712H105.667Z" fill="white" stroke="#DB192F" stroke-width="0.106084" stroke-miterlimit="10"></path><path d="M117.267 30.8648V36.1974H117.125L115.562 30.8648H113.374V43.3676H116.31V38.3759H116.377L117.741 43.3676H120.203V30.8648H117.267Z" fill="white" stroke="#DB192F" stroke-width="0.106084" stroke-miterlimit="10"></path><path d="M123.657 1.06641L119.925 4.73198V23.3819L123.59 26.8959H130.694L134.284 23.3819V15.9181H128.232V22.0464H126.186V5.99172H128.232V11.1349H134.284V4.73198L130.628 1.06641H123.657Z" fill="#DB192F"></path><path d="M96.0723 12.12H95.4377L92.1983 1.06641H87.6992V26.8959H93.4675V16.4864H94.1779L97.1331 26.8959H101.841V1.06641H96.0723V12.12Z" fill="#DB192F"></path><path d="M47.5762 12.12H46.8753L43.7117 1.06641H39.2031V26.8959H44.9714V16.4864H45.6818L48.637 26.8959H53.3539V1.06641H47.5762V12.12Z" fill="#DB192F"></path><path d="M12.0392 13.948H11.4709L9.57658 1.06639H2.53906V26.8959H7.95691V13.6638H8.51575L10.7037 26.8959H12.9485L15.2028 13.6638H15.7711L15.6953 26.8959H21.1132V1.06639H14.1514L12.0392 13.948Z" fill="#DB192F"></path><path d="M26.7513 1.06641L22.9531 4.73198V23.3819L26.7513 26.8959H33.7131L37.4449 23.3819V4.73198L33.571 1.07588H26.7513V1.06641ZM31.1841 22.0464H29.1382V5.99172H31.1841V22.0464Z" fill="#DB192F"></path><path d="M71.3682 1.06641V26.8959H81.9955L85.9357 23.3061V4.73198L81.9955 1.07588H71.3682V1.06641ZM79.6749 22.0464H77.629V5.99172H79.6749V22.0464Z" fill="#DB192F"></path><path d="M57.9303 1.06641L54.5488 26.8959H60.535L60.8854 22.2547H63.8406L64.1911 26.8959H70.1772L66.7958 1.06641H57.9303ZM61.2359 17.3957L62.0126 7.26094H62.7135L63.4902 17.3957H61.2359Z" fill="#DB192F"></path><path d="M107.477 1.06641L103.604 4.73198V23.3819L107.477 26.8959H114.373L118.171 23.3819V4.73198L114.297 1.07588H107.477V1.06641ZM111.91 22.0464H109.874V5.99172H111.91V22.0464Z" fill="#DB192F"></path><path d="M147.524 13.1713L152.8 1.06641H146.189L142.741 11.277H142.248V1.06641H136.054V26.8959H142.248V16.3444H142.741L146.747 26.8959H153.719L147.524 13.1713Z" fill="#DB192F"></path><path d="M130.818 30.8648H127.674V43.3676H130.818V30.8648Z" fill="white" stroke="#DB192F" stroke-width="0.106084" stroke-miterlimit="10"></path><path d="M148.783 35.7144V32.636L147.002 30.8648H143.592L141.812 32.636V41.6626L143.999 43.3676H146.869L148.783 41.6626V38.035H145.638V40.9712H145.022V33.1854H145.638V35.7144H148.783Z" fill="white" stroke="#DB192F" stroke-width="0.106084" stroke-miterlimit="10"></path><path d="M137.203 30.8648V36.1974H137.071L135.499 30.8648H133.311V43.3676H136.256V38.3759H136.323L137.686 43.3676H140.149V30.8648H137.203Z" fill="white" stroke="#DB192F" stroke-width="0.106084" stroke-miterlimit="10"></path><path d="M151.385 41.4781H149.5V43.363H151.385V41.4781Z" fill="white" stroke="#DB192F" stroke-width="0.106084" stroke-miterlimit="10"></path><path d="M122.705 43.3454H122.62V41.4984H120.697V43.3454H121.285L120.839 44.5862L122.705 43.3454Z" fill="white" stroke="#DB192F" stroke-width="0.0947177" stroke-miterlimit="10"></path></svg>