<?xml version="1.0" encoding="UTF-8"?> <svg xmlns="http://www.w3.org/2000/svg" xmlns:xlink="http://www.w3.org/1999/xlink" version="1.1" id="Layer_1" x="0px" y="0px" width="160px" height="16px" viewBox="0 0 160 16" style="enable-background:new 0 0 160 16;" xml:space="preserve"> <style type="text/css"> .st0{fill:#F6F3EE;} </style> <g> <path class="st0" d="M141.5,0.4v15.2h2.8V7.1c0-0.6,0.3-1,0.7-1c0.2,0,0.5,0.1,0.8,0.3l14.2,9.4V0.5h-2.8v8.6c0,0.6-0.3,1-0.7,1 c-0.2,0-0.5-0.1-0.8-0.3L141.5,0.4 M128.2,0.4l-11.7,15.3h3.3v-0.1l0.9-1.2c0.4-0.5,0.9-0.8,1.5-0.8h12c0.6,0,1.1,0.3,1.5,0.8 l0.9,1.2h3.3L128.2,0.4 M101.9,0.4H90.6v15.2h2.8v-3.5c0-0.8,0.4-1.2,1.2-1.2h4.7c1.1,0,1.6,0.2,2,0.6l4.6,4.2h3.7l-4.6-4.2 c-0.5-0.4-0.4-1,0.3-1.4c1.6-0.7,3.1-2.1,3.1-4.5C108.4,2.3,106.2,0.4,101.9,0.4 M46.5,0.4v15.2h2.8V7.1c0-0.6,0.3-1,0.7-1 c0.2,0,0.5,0.1,0.8,0.3L65,15.7V0.5h-2.8v8.6c0,0.6-0.3,1-0.7,1c-0.2,0-0.5-0.1-0.8-0.3L46.5,0.4 M21,0.4l-9.7,10.8 c-0.2,0.2-0.5,0.4-0.8,0.4c-0.3,0-0.5-0.1-0.7-0.4L0,0.4v15.2h2.8V8.9c0-0.4,0.2-0.7,0.6-0.7c0.2,0,0.4,0.1,0.6,0.4l6.4,7.1 l6.4-7.1c0.2-0.2,0.4-0.4,0.6-0.4c0.3,0,0.6,0.2,0.6,0.7v6.7h3V0.4 M114.8,0.5H112v15.1h2.8V0.5 M78.5,0.5h-9.9v15.2h10 c5.3,0,9.3-3,9.3-7.6C87.9,3.4,83.8,0.5,78.5,0.5 M124.6,11.3c-0.8,0-1-0.7-0.6-1.3l3.3-4.4c0.3-0.4,0.6-0.6,0.8-0.6 c0.3,0,0.6,0.2,0.9,0.6l3.3,4.4c0.5,0.6,0.3,1.3-0.5,1.3H124.6 M72.6,13.2c-0.8,0-1.2-0.4-1.2-1.2V4.2c0-0.8,0.4-1.2,1.2-1.2h5.9 C82.7,3,85,5.2,85,8.1s-2.2,5.1-6.5,5.1H72.6 M94.6,8.6c-0.8,0-1.2-0.4-1.2-1.2V4.1c0-0.8,0.4-1.2,1.2-1.2h7.3 c2.2,0,3.6,0.9,3.6,2.8c0,1.9-1.4,2.9-3.6,2.9H94.6 M33.8,13.4c-4.3,0-7.2-2.3-7.2-5.4s3-5.4,7.2-5.4C38,2.6,41,4.9,41,8 C40.9,11.1,38,13.4,33.8,13.4 M33.8,0.1C28,0.1,23.7,3.4,23.7,8c-0.1,4.6,4.2,7.9,10.1,7.9c5.8,0,10.1-3.3,10.1-7.9 C43.9,3.5,39.6,0.1,33.8,0.1"></path> </g> </svg> 